<?xml version="1.0"?>
<svg xmlns="http://www.w3.org/2000/svg" xmlns:xlink="http://www.w3.org/1999/xlink" xmlns:svgjs="http://svgjs.com/svgjs" version="1.1" width="512" height="512" x="0" y="0" viewBox="0 0 509.5 509.5" style="enable-background:new 0 0 512 512" xml:space="preserve" class=""><g><link type="text/css" rel="stylesheet" id="dark-mode-general-link"/><link type="text/css" rel="stylesheet" id="dark-mode-custom-link"/><style type="text/css" id="dark-mode-custom-style"/><g xmlns="http://www.w3.org/2000/svg"><path d="m324.729 465.75c4.142 0 7.5-3.357 7.5-7.5s-3.358-7.5-7.5-7.5h-186c-4.142 0-7.5 3.357-7.5 7.5s3.358 7.5 7.5 7.5z" fill="#159535" data-original="#000000" style=""/><path d="m427.62 158.75c4.142 0 7.5-3.357 7.5-7.5v-39.94c0-3.7-1.54-7.284-4.223-9.832-2.627-2.494-6.201-3.83-9.801-3.718h-32.016v-60.26c0-20.678-16.822-37.5-37.5-37.5h-239.7c-20.678 0-37.5 16.822-37.5 37.5v351.75c0 4.143 3.358 7.5 7.5 7.5s7.5-3.357 7.5-7.5v-351.75c0-12.406 10.093-22.5 22.5-22.5h24.696v13.81c0 17.061 13.879 30.94 30.94 30.94h128.43c17.055 0 30.93-13.88 30.93-30.94v-13.81h24.704c12.407 0 22.5 10.094 22.5 22.5v60.26h-177.126c-3.615-.108-7.184 1.225-9.812 3.721-2.683 2.547-4.222 6.13-4.222 9.829v193.6c0 30.729 17.993 58.978 45.841 71.967l69.862 32.577c3.302 1.532 6.847 2.298 10.394 2.298 3.55 0 7.101-.768 10.413-2.305l54.651-25.483v88.036c0 12.406-10.093 22.5-22.5 22.5h-239.7c-12.407 0-22.5-10.094-22.5-22.5v-47.75c0-4.143-3.358-7.5-7.5-7.5s-7.5 3.357-7.5 7.5v47.75c0 20.678 16.822 37.5 37.5 37.5h239.7c20.678 0 37.5-16.822 37.5-37.5v-95.03l.2-.093c27.847-12.989 45.84-41.237 45.84-71.967v-118.66c0-4.143-3.358-7.5-7.5-7.5s-7.5 3.357-7.5 7.5v118.66c0 24.925-14.594 47.838-37.18 58.373l-69.837 32.564c-2.596 1.203-5.572 1.204-8.154.005l-69.849-32.569c-22.586-10.535-37.181-33.448-37.181-58.373v-192.15h222.2v38.49c0 4.143 3.358 7.5 7.5 7.5zm-115.744-129.94c0 8.79-7.146 15.94-15.93 15.94h-128.43c-8.79 0-15.94-7.15-15.94-15.94v-13.81h160.3z" fill="#159535" data-original="#000000" style=""/><path d="m228.094 132.758c-5.607 0-10.169 4.563-10.169 10.17v161.979c0 17.191 10.058 32.988 25.623 40.246v.001l62.304 29.047c1.004.468 2.086.702 3.169.702s2.165-.234 3.169-.702l62.304-29.047c15.566-7.258 25.624-23.056 25.624-40.247v-161.979c0-5.607-4.562-10.17-10.169-10.17zm157.024 172.148c0 11.386-6.658 21.848-16.962 26.651l-59.134 27.569-59.135-27.569v.001c-10.304-4.805-16.962-15.267-16.962-26.652v-157.148h152.193z" fill="#159535" data-original="#000000" style=""/></g></g></svg>
